# xmcd
# Track frame offsets:
# 182
# 12215
# 28332
# 43710
# 60977
# 73312
# 85417
# 96325
# 109140
# 122005
# 138562
# 151352
# 165177
# 176697
#
# Disc length: 2535 seconds
# Revision: 0
# Processed by: cddbd v1.4PL0 Copyright (c) Steve Scherf et al.
# Submitted via: VisiTrax 2.9.5.181 - For more info visit www.synapsa.com
#
DISCID=bc09e50e
DTITLE=Various Artist - Country Legends
DYEAR=1900
DGENRE=
TTITLE0=Johnny Cash - Ring of fire
TTITLE1=Billie Jo Spears - Blanket on the ground
TTITLE2=Jim Reeves - Blue side of lonesome
TTITLE3=Crystal Gayle - Too many lovers
TTITLE4=George Jones - The door
TTITLE5=Lynn Anderson - You're my man
TTITLE6=Faron Young - Hello walls
TTITLE7=Tammy Wynette - Take me to your world
TTITLE8=Waylon Jennings - Ramblin man
TTITLE9=Janie Fricke - It ain't easy bein easy
TTITLE10=Hank Snow - Hello love
TTITLE11=Kenny Rogers and Dottie West - Every time two fools collide
TTITLE12=Marty Robbins - Ribbon of darknes
TTITLE13=Dolly Parton - You're the only one
EXTD=
EXTT0=
EXTT1=
EXTT2=
EXTT3=
EXTT4=
EXTT5=
EXTT6=
EXTT7=
EXTT8=
EXTT9=
EXTT10=
EXTT11=
EXTT12=
EXTT13=
PLAYORDER=
